<?xml version="1.0" encoding="utf-8" standalone="no"?>
<!DOCTYPE svg PUBLIC "-//W3C//DTD SVG 1.1//EN"
  "http://www.w3.org/Graphics/SVG/1.1/DTD/svg11.dtd">
<!-- Created with matplotlib (https://matplotlib.org/) -->
<svg height="288pt" version="1.1" viewBox="0 0 864 288" width="864pt" xmlns="http://www.w3.org/2000/svg" xmlns:xlink="http://www.w3.org/1999/xlink">
 <metadata>
  <rdf:RDF xmlns:cc="http://creativecommons.org/ns#" xmlns:dc="http://purl.org/dc/elements/1.1/" xmlns:rdf="http://www.w3.org/1999/02/22-rdf-syntax-ns#">
   <cc:Work>
    <dc:type rdf:resource="http://purl.org/dc/dcmitype/StillImage"/>
    <dc:date>2021-02-13T21:22:08.804824</dc:date>
    <dc:format>image/svg+xml</dc:format>
    <dc:creator>
     <cc:Agent>
      <dc:title>Matplotlib v3.3.4, https://matplotlib.org/</dc:title>
     </cc:Agent>
    </dc:creator>
   </cc:Work>
  </rdf:RDF>
 </metadata>
 <defs>
  <style type="text/css">*{stroke-linecap:butt;stroke-linejoin:round;}</style>
 </defs>
 <g id="figure_1">
  <g id="patch_1">
   <path d="M 0 288 
L 864 288 
L 864 0 
L 0 0 
z
" style="fill:#ffffff;"/>
  </g>
  <g id="axes_1">
   <g id="patch_2">
    <path d="M 108 256.32 
L 331.2 256.32 
L 331.2 34.56 
L 108 34.56 
z
" style="fill:#ffffff;"/>
   </g>
   <g id="matplotlib.axis_1">
    <g id="xtick_1">
     <g id="line2d_1">
      <defs>
       <path d="M 0 0 
L 0 3.5 
" id="m92c16ee5c3" style="stroke:#000000;stroke-width:0.8;"/>
      </defs>
      <g>
       <use style="stroke:#000000;stroke-width:0.8;" x="118.145455" xlink:href="#m92c16ee5c3" y="256.32"/>
      </g>
     </g>
     <g id="text_1">
      <!-- −3 -->
      <g transform="translate(110.774361 270.918437)scale(0.1 -0.1)">
       <defs>
        <path d="M 10.59375 35.5 
L 73.1875 35.5 
L 73.1875 27.203125 
L 10.59375 27.203125 
z
" id="DejaVuSans-8722"/>
        <path d="M 40.578125 39.3125 
Q 47.65625 37.796875 51.625 33 
Q 55.609375 28.21875 55.609375 21.1875 
Q 55.609375 10.40625 48.1875 4.484375 
Q 40.765625 -1.421875 27.09375 -1.421875 
Q 22.515625 -1.421875 17.65625 -0.515625 
Q 12.796875 0.390625 7.625 2.203125 
L 7.625 11.71875 
Q 11.71875 9.328125 16.59375 8.109375 
Q 21.484375 6.890625 26.8125 6.890625 
Q 36.078125 6.890625 40.9375 10.546875 
Q 45.796875 14.203125 45.796875 21.1875 
Q 45.796875 27.640625 41.28125 31.265625 
Q 36.765625 34.90625 28.71875 34.90625 
L 20.21875 34.90625 
L 20.21875 43.015625 
L 29.109375 43.015625 
Q 36.375 43.015625 40.234375 45.921875 
Q 44.09375 48.828125 44.09375 54.296875 
Q 44.09375 59.90625 40.109375 62.90625 
Q 36.140625 65.921875 28.71875 65.921875 
Q 24.65625 65.921875 20.015625 65.03125 
Q 15.375 64.15625 9.8125 62.3125 
L 9.8125 71.09375 
Q 15.4375 72.65625 20.34375 73.4375 
Q 25.25 74.21875 29.59375 74.21875 
Q 40.828125 74.21875 47.359375 69.109375 
Q 53.90625 64.015625 53.90625 55.328125 
Q 53.90625 49.265625 50.4375 45.09375 
Q 46.96875 40.921875 40.578125 39.3125 
z
" id="DejaVuSans-51"/>
       </defs>
       <use xlink:href="#DejaVuSans-8722"/>
       <use x="83.789062" xlink:href="#DejaVuSans-51"/>
      </g>
     </g>
    </g>
    <g id="xtick_2">
     <g id="line2d_2">
      <g>
       <use style="stroke:#000000;stroke-width:0.8;" x="151.963636" xlink:href="#m92c16ee5c3" y="256.32"/>
      </g>
     </g>
     <g id="text_2">
      <!-- −2 -->
      <g transform="translate(144.592543 270.918437)scale(0.1 -0.1)">
       <defs>
        <path d="M 19.1875 8.296875 
L 53.609375 8.296875 
L 53.609375 0 
L 7.328125 0 
L 7.328125 8.296875 
Q 12.9375 14.109375 22.625 23.890625 
Q 32.328125 33.6875 34.8125 36.53125 
Q 39.546875 41.84375 41.421875 45.53125 
Q 43.3125 49.21875 43.3125 52.78125 
Q 43.3125 58.59375 39.234375 62.25 
Q 35.15625 65.921875 28.609375 65.921875 
Q 23.96875 65.921875 18.8125 64.3125 
Q 13.671875 62.703125 7.8125 59.421875 
L 7.8125 69.390625 
Q 13.765625 71.78125 18.9375 73 
Q 24.125 74.21875 28.421875 74.21875 
Q 39.75 74.21875 46.484375 68.546875 
Q 53.21875 62.890625 53.21875 53.421875 
Q 53.21875 48.921875 51.53125 44.890625 
Q 49.859375 40.875 45.40625 35.40625 
Q 44.1875 33.984375 37.640625 27.21875 
Q 31.109375 20.453125 19.1875 8.296875 
z
" id="DejaVuSans-50"/>
       </defs>
       <use xlink:href="#DejaVuSans-8722"/>
       <use x="83.789062" xlink:href="#DejaVuSans-50"/>
      </g>
     </g>
    </g>
    <g id="xtick_3">
     <g id="line2d_3">
      <g>
       <use style="stroke:#000000;stroke-width:0.8;" x="185.781818" xlink:href="#m92c16ee5c3" y="256.32"/>
      </g>
     </g>
     <g id="text_3">
      <!-- −1 -->
      <g transform="translate(178.410724 270.918437)scale(0.1 -0.1)">
       <defs>
        <path d="M 12.40625 8.296875 
L 28.515625 8.296875 
L 28.515625 63.921875 
L 10.984375 60.40625 
L 10.984375 69.390625 
L 28.421875 72.90625 
L 38.28125 72.90625 
L 38.28125 8.296875 
L 54.390625 8.296875 
L 54.390625 0 
L 12.40625 0 
z
" id="DejaVuSans-49"/>
       </defs>
       <use xlink:href="#DejaVuSans-8722"/>
       <use x="83.789062" xlink:href="#DejaVuSans-49"/>
      </g>
     </g>
    </g>
    <g id="xtick_4">
     <g id="line2d_4">
      <g>
       <use style="stroke:#000000;stroke-width:0.8;" x="219.6" xlink:href="#m92c16ee5c3" y="256.32"/>
      </g>
     </g>
     <g id="text_4">
      <!-- 0 -->
      <g transform="translate(216.41875 270.918437)scale(0.1 -0.1)">
       <defs>
        <path d="M 31.78125 66.40625 
Q 24.171875 66.40625 20.328125 58.90625 
Q 16.5 51.421875 16.5 36.375 
Q 16.5 21.390625 20.328125 13.890625 
Q 24.171875 6.390625 31.78125 6.390625 
Q 39.453125 6.390625 43.28125 13.890625 
Q 47.125 21.390625 47.125 36.375 
Q 47.125 51.421875 43.28125 58.90625 
Q 39.453125 66.40625 31.78125 66.40625 
z
M 31.78125 74.21875 
Q 44.046875 74.21875 50.515625 64.515625 
Q 56.984375 54.828125 56.984375 36.375 
Q 56.984375 17.96875 50.515625 8.265625 
Q 44.046875 -1.421875 31.78125 -1.421875 
Q 19.53125 -1.421875 13.0625 8.265625 
Q 6.59375 17.96875 6.59375 36.375 
Q 6.59375 54.828125 13.0625 64.515625 
Q 19.53125 74.21875 31.78125 74.21875 
z
" id="DejaVuSans-48"/>
       </defs>
       <use xlink:href="#DejaVuSans-48"/>
      </g>
     </g>
    </g>
    <g id="xtick_5">
     <g id="line2d_5">
      <g>
       <use style="stroke:#000000;stroke-width:0.8;" x="253.418182" xlink:href="#m92c16ee5c3" y="256.32"/>
      </g>
     </g>
     <g id="text_5">
      <!-- 1 -->
      <g transform="translate(250.236932 270.918437)scale(0.1 -0.1)">
       <use xlink:href="#DejaVuSans-49"/>
      </g>
     </g>
    </g>
    <g id="xtick_6">
     <g id="line2d_6">
      <g>
       <use style="stroke:#000000;stroke-width:0.8;" x="287.236364" xlink:href="#m92c16ee5c3" y="256.32"/>
      </g>
     </g>
     <g id="text_6">
      <!-- 2 -->
      <g transform="translate(284.055114 270.918437)scale(0.1 -0.1)">
       <use xlink:href="#DejaVuSans-50"/>
      </g>
     </g>
    </g>
    <g id="xtick_7">
     <g id="line2d_7">
      <g>
       <use style="stroke:#000000;stroke-width:0.8;" x="321.054545" xlink:href="#m92c16ee5c3" y="256.32"/>
      </g>
     </g>
     <g id="text_7">
      <!-- 3 -->
      <g transform="translate(317.873295 270.918437)scale(0.1 -0.1)">
       <use xlink:href="#DejaVuSans-51"/>
      </g>
     </g>
    </g>
    <g id="text_8">
     <!-- $z$ -->
     <g transform="translate(216.42 286.11625)scale(0.12 -0.12)">
      <defs>
       <path d="M 11.625 54.6875 
L 54.296875 54.6875 
L 52.6875 46.484375 
L 11.53125 7.171875 
L 45.515625 7.171875 
L 44.09375 0 
L -0.296875 0 
L 1.3125 8.203125 
L 42.484375 47.515625 
L 10.203125 47.515625 
z
" id="DejaVuSans-Oblique-122"/>
      </defs>
      <use transform="translate(0 0.3125)" xlink:href="#DejaVuSans-Oblique-122"/>
     </g>
    </g>
   </g>
   <g id="matplotlib.axis_2">
    <g id="ytick_1">
     <g id="line2d_8">
      <defs>
       <path d="M 0 0 
L -3.5 0 
" id="m89b826cec7" style="stroke:#000000;stroke-width:0.8;"/>
      </defs>
      <g>
       <use style="stroke:#000000;stroke-width:0.8;" x="108" xlink:href="#m89b826cec7" y="246.24"/>
      </g>
     </g>
     <g id="text_9">
      <!-- 0.0 -->
      <g transform="translate(85.096875 250.039219)scale(0.1 -0.1)">
       <defs>
        <path d="M 10.6875 12.40625 
L 21 12.40625 
L 21 0 
L 10.6875 0 
z
" id="DejaVuSans-46"/>
       </defs>
       <use xlink:href="#DejaVuSans-48"/>
       <use x="63.623047" xlink:href="#DejaVuSans-46"/>
       <use x="95.410156" xlink:href="#DejaVuSans-48"/>
      </g>
     </g>
    </g>
    <g id="ytick_2">
     <g id="line2d_9">
      <g>
       <use style="stroke:#000000;stroke-width:0.8;" x="108" xlink:href="#m89b826cec7" y="213.175505"/>
      </g>
     </g>
     <g id="text_10">
      <!-- 0.5 -->
      <g transform="translate(85.096875 216.974724)scale(0.1 -0.1)">
       <defs>
        <path d="M 10.796875 72.90625 
L 49.515625 72.90625 
L 49.515625 64.59375 
L 19.828125 64.59375 
L 19.828125 46.734375 
Q 21.96875 47.46875 24.109375 47.828125 
Q 26.265625 48.1875 28.421875 48.1875 
Q 40.625 48.1875 47.75 41.5 
Q 54.890625 34.8125 54.890625 23.390625 
Q 54.890625 11.625 47.5625 5.09375 
Q 40.234375 -1.421875 26.90625 -1.421875 
Q 22.3125 -1.421875 17.546875 -0.640625 
Q 12.796875 0.140625 7.71875 1.703125 
L 7.71875 11.625 
Q 12.109375 9.234375 16.796875 8.0625 
Q 21.484375 6.890625 26.703125 6.890625 
Q 35.15625 6.890625 40.078125 11.328125 
Q 45.015625 15.765625 45.015625 23.390625 
Q 45.015625 31 40.078125 35.4375 
Q 35.15625 39.890625 26.703125 39.890625 
Q 22.75 39.890625 18.8125 39.015625 
Q 14.890625 38.140625 10.796875 36.28125 
z
" id="DejaVuSans-53"/>
       </defs>
       <use xlink:href="#DejaVuSans-48"/>
       <use x="63.623047" xlink:href="#DejaVuSans-46"/>
       <use x="95.410156" xlink:href="#DejaVuSans-53"/>
      </g>
     </g>
    </g>
    <g id="ytick_3">
     <g id="line2d_10">
      <g>
       <use style="stroke:#000000;stroke-width:0.8;" x="108" xlink:href="#m89b826cec7" y="180.111011"/>
      </g>
     </g>
     <g id="text_11">
      <!-- 1.0 -->
      <g transform="translate(85.096875 183.91023)scale(0.1 -0.1)">
       <use xlink:href="#DejaVuSans-49"/>
       <use x="63.623047" xlink:href="#DejaVuSans-46"/>
       <use x="95.410156" xlink:href="#DejaVuSans-48"/>
      </g>
     </g>
    </g>
    <g id="ytick_4">
     <g id="line2d_11">
      <g>
       <use style="stroke:#000000;stroke-width:0.8;" x="108" xlink:href="#m89b826cec7" y="147.046516"/>
      </g>
     </g>
     <g id="text_12">
      <!-- 1.5 -->
      <g transform="translate(85.096875 150.845735)scale(0.1 -0.1)">
       <use xlink:href="#DejaVuSans-49"/>
       <use x="63.623047" xlink:href="#DejaVuSans-46"/>
       <use x="95.410156" xlink:href="#DejaVuSans-53"/>
      </g>
     </g>
    </g>
    <g id="ytick_5">
     <g id="line2d_12">
      <g>
       <use style="stroke:#000000;stroke-width:0.8;" x="108" xlink:href="#m89b826cec7" y="113.982022"/>
      </g>
     </g>
     <g id="text_13">
      <!-- 2.0 -->
      <g transform="translate(85.096875 117.78124)scale(0.1 -0.1)">
       <use xlink:href="#DejaVuSans-50"/>
       <use x="63.623047" xlink:href="#DejaVuSans-46"/>
       <use x="95.410156" xlink:href="#DejaVuSans-48"/>
      </g>
     </g>
    </g>
    <g id="ytick_6">
     <g id="line2d_13">
      <g>
       <use style="stroke:#000000;stroke-width:0.8;" x="108" xlink:href="#m89b826cec7" y="80.917527"/>
      </g>
     </g>
     <g id="text_14">
      <!-- 2.5 -->
      <g transform="translate(85.096875 84.716746)scale(0.1 -0.1)">
       <use xlink:href="#DejaVuSans-50"/>
       <use x="63.623047" xlink:href="#DejaVuSans-46"/>
       <use x="95.410156" xlink:href="#DejaVuSans-53"/>
      </g>
     </g>
    </g>
    <g id="ytick_7">
     <g id="line2d_14">
      <g>
       <use style="stroke:#000000;stroke-width:0.8;" x="108" xlink:href="#m89b826cec7" y="47.853032"/>
      </g>
     </g>
     <g id="text_15">
      <!-- 3.0 -->
      <g transform="translate(85.096875 51.652251)scale(0.1 -0.1)">
       <use xlink:href="#DejaVuSans-51"/>
       <use x="63.623047" xlink:href="#DejaVuSans-46"/>
       <use x="95.410156" xlink:href="#DejaVuSans-48"/>
      </g>
     </g>
    </g>
   </g>
   <g id="line2d_15">
    <path clip-path="url(#p563f3caf9c)" d="M 118.145455 44.64 
L 120.195041 48.452155 
L 122.244628 52.252717 
L 124.294215 56.04104 
L 126.343802 59.816444 
L 128.393388 63.578218 
L 130.442975 67.325618 
L 132.492562 71.057867 
L 134.542149 74.774151 
L 136.591736 78.473621 
L 138.641322 82.155394 
L 140.690909 85.818547 
L 142.740496 89.462124 
L 144.790083 93.085128 
L 146.839669 96.686528 
L 148.889256 100.265254 
L 150.938843 103.8202 
L 152.98843 107.350225 
L 155.038017 110.854152 
L 157.087603 114.330769 
L 159.13719 117.778833 
L 161.186777 121.197069 
L 163.236364 124.584175 
L 165.28595 127.93882 
L 167.335537 131.259652 
L 169.385124 134.545296 
L 171.434711 137.794363 
L 173.484298 141.00545 
L 175.533884 144.177143 
L 177.583471 147.308029 
L 179.633058 150.396691 
L 181.682645 153.441723 
L 183.732231 156.441729 
L 185.781818 159.395332 
L 187.831405 162.301182 
L 189.880992 165.157957 
L 191.930579 167.964376 
L 193.980165 170.719203 
L 196.029752 173.421253 
L 198.079339 176.0694 
L 200.128926 178.662584 
L 202.178512 181.199816 
L 204.228099 183.680188 
L 206.277686 186.102875 
L 208.327273 188.467142 
L 210.37686 190.772349 
L 212.426446 193.017955 
L 214.476033 195.203523 
L 216.52562 197.328723 
L 218.575207 199.393333 
L 220.624793 201.397242 
L 222.67438 203.340449 
L 224.723967 205.223067 
L 226.773554 207.045316 
L 228.82314 208.807527 
L 230.872727 210.510138 
L 232.922314 212.153689 
L 234.971901 213.73882 
L 237.021488 215.266265 
L 239.071074 216.73685 
L 241.120661 218.151484 
L 243.170248 219.511155 
L 245.219835 220.816922 
L 247.269421 222.069913 
L 249.319008 223.271311 
L 251.368595 224.422353 
L 253.418182 225.524321 
L 255.467769 226.578535 
L 257.517355 227.586347 
L 259.566942 228.549133 
L 261.616529 229.468288 
L 263.666116 230.34522 
L 265.715702 231.181344 
L 267.765289 231.978075 
L 269.814876 232.736826 
L 271.864463 233.458999 
L 273.91405 234.145984 
L 275.963636 234.799157 
L 278.013223 235.419868 
L 280.06281 236.00945 
L 282.112397 236.569203 
L 284.161983 237.100404 
L 286.21157 237.604295 
L 288.261157 238.082087 
L 290.310744 238.534958 
L 292.360331 238.96405 
L 294.409917 239.370468 
L 296.459504 239.755281 
L 298.509091 240.119522 
L 300.558678 240.464186 
L 302.608264 240.790231 
L 304.657851 241.098578 
L 306.707438 241.390112 
L 308.757025 241.665681 
L 310.806612 241.926098 
L 312.856198 242.172141 
L 314.905785 242.404555 
L 316.955372 242.62405 
L 319.004959 242.831305 
L 321.054545 243.026968 
" style="fill:none;stroke:#ff0000;stroke-linecap:square;stroke-width:0.5;"/>
   </g>
   <g id="line2d_16">
    <path clip-path="url(#p563f3caf9c)" d="M 118.145455 87.530426 
L 120.195041 89.935116 
L 122.244628 92.339807 
L 124.294215 94.744498 
L 126.343802 97.149188 
L 128.393388 99.553879 
L 130.442975 101.958569 
L 132.492562 104.36326 
L 134.542149 106.76795 
L 136.591736 109.172641 
L 138.641322 111.577331 
L 140.690909 113.982022 
L 142.740496 116.386712 
L 144.790083 118.791403 
L 146.839669 121.196093 
L 148.889256 123.600784 
L 150.938843 126.005474 
L 152.98843 128.410165 
L 155.038017 130.814855 
L 157.087603 133.219546 
L 159.13719 135.624236 
L 161.186777 138.028927 
L 163.236364 140.433617 
L 165.28595 142.838308 
L 167.335537 145.242998 
L 169.385124 147.647689 
L 171.434711 150.052379 
L 173.484298 152.45707 
L 175.533884 154.86176 
L 177.583471 157.266451 
L 179.633058 159.671141 
L 181.682645 162.075832 
L 183.732231 164.480522 
L 185.781818 166.885213 
L 187.831405 169.289903 
L 189.880992 171.694594 
L 191.930579 174.099285 
L 193.980165 176.503975 
L 196.029752 178.908666 
L 198.079339 181.313356 
L 200.128926 183.718047 
L 202.178512 186.122737 
L 204.228099 188.527428 
L 206.277686 190.932118 
L 208.327273 193.336809 
L 210.37686 195.741499 
L 212.426446 198.14619 
L 214.476033 200.55088 
L 216.52562 202.955571 
L 218.575207 205.360261 
L 220.624793 207.764952 
L 222.67438 210.169642 
L 224.723967 212.574333 
L 226.773554 214.979023 
L 228.82314 217.383714 
L 230.872727 219.788404 
L 232.922314 222.193095 
L 234.971901 224.597785 
L 237.021488 227.002476 
L 239.071074 229.407166 
L 241.120661 231.811857 
L 243.170248 234.216547 
L 245.219835 236.621238 
L 247.269421 239.025928 
L 249.319008 241.430619 
L 251.368595 243.835309 
L 253.418182 246.24 
L 255.467769 246.24 
L 257.517355 246.24 
L 259.566942 246.24 
L 261.616529 246.24 
L 263.666116 246.24 
L 265.715702 246.24 
L 267.765289 246.24 
L 269.814876 246.24 
L 271.864463 246.24 
L 273.91405 246.24 
L 275.963636 246.24 
L 278.013223 246.24 
L 280.06281 246.24 
L 282.112397 246.24 
L 284.161983 246.24 
L 286.21157 246.24 
L 288.261157 246.24 
L 290.310744 246.24 
L 292.360331 246.24 
L 294.409917 246.24 
L 296.459504 246.24 
L 298.509091 246.24 
L 300.558678 246.24 
L 302.608264 246.24 
L 304.657851 246.24 
L 306.707438 246.24 
L 308.757025 246.24 
L 310.806612 246.24 
L 312.856198 246.24 
L 314.905785 246.24 
L 316.955372 246.24 
L 319.004959 246.24 
L 321.054545 246.24 
" style="fill:none;stroke:#0000ff;stroke-linecap:square;stroke-width:0.5;"/>
   </g>
   <g id="patch_3">
    <path d="M 108 256.32 
L 108 34.56 
" style="fill:none;stroke:#000000;stroke-linecap:square;stroke-linejoin:miter;stroke-width:0.8;"/>
   </g>
   <g id="patch_4">
    <path d="M 331.2 256.32 
L 331.2 34.56 
" style="fill:none;stroke:#000000;stroke-linecap:square;stroke-linejoin:miter;stroke-width:0.8;"/>
   </g>
   <g id="patch_5">
    <path d="M 108 256.32 
L 331.2 256.32 
" style="fill:none;stroke:#000000;stroke-linecap:square;stroke-linejoin:miter;stroke-width:0.8;"/>
   </g>
   <g id="patch_6">
    <path d="M 108 34.56 
L 331.2 34.56 
" style="fill:none;stroke:#000000;stroke-linecap:square;stroke-linejoin:miter;stroke-width:0.8;"/>
   </g>
   <g id="legend_1">
    <g id="patch_7">
     <path d="M 242.7 76.038125 
L 324.2 76.038125 
Q 326.2 76.038125 326.2 74.038125 
L 326.2 41.56 
Q 326.2 39.56 324.2 39.56 
L 242.7 39.56 
Q 240.7 39.56 240.7 41.56 
L 240.7 74.038125 
Q 240.7 76.038125 242.7 76.038125 
z
" style="fill:#ffffff;opacity:0.8;stroke:#cccccc;stroke-linejoin:miter;"/>
    </g>
    <g id="line2d_17">
     <path d="M 244.7 49.56 
L 264.7 49.56 
" style="fill:none;stroke:#ff0000;stroke-linecap:square;stroke-width:0.5;"/>
    </g>
    <g id="line2d_18"/>
    <g id="text_16">
     <!-- $-\log\frac{1}{1+e^{-z}}$ -->
     <g transform="translate(272.7 53.06)scale(0.1 -0.1)">
      <defs>
       <path d="M 9.421875 75.984375 
L 18.40625 75.984375 
L 18.40625 0 
L 9.421875 0 
z
" id="DejaVuSans-108"/>
       <path d="M 30.609375 48.390625 
Q 23.390625 48.390625 19.1875 42.75 
Q 14.984375 37.109375 14.984375 27.296875 
Q 14.984375 17.484375 19.15625 11.84375 
Q 23.34375 6.203125 30.609375 6.203125 
Q 37.796875 6.203125 41.984375 11.859375 
Q 46.1875 17.53125 46.1875 27.296875 
Q 46.1875 37.015625 41.984375 42.703125 
Q 37.796875 48.390625 30.609375 48.390625 
z
M 30.609375 56 
Q 42.328125 56 49.015625 48.375 
Q 55.71875 40.765625 55.71875 27.296875 
Q 55.71875 13.875 49.015625 6.21875 
Q 42.328125 -1.421875 30.609375 -1.421875 
Q 18.84375 -1.421875 12.171875 6.21875 
Q 5.515625 13.875 5.515625 27.296875 
Q 5.515625 40.765625 12.171875 48.375 
Q 18.84375 56 30.609375 56 
z
" id="DejaVuSans-111"/>
       <path d="M 45.40625 27.984375 
Q 45.40625 37.75 41.375 43.109375 
Q 37.359375 48.484375 30.078125 48.484375 
Q 22.859375 48.484375 18.828125 43.109375 
Q 14.796875 37.75 14.796875 27.984375 
Q 14.796875 18.265625 18.828125 12.890625 
Q 22.859375 7.515625 30.078125 7.515625 
Q 37.359375 7.515625 41.375 12.890625 
Q 45.40625 18.265625 45.40625 27.984375 
z
M 54.390625 6.78125 
Q 54.390625 -7.171875 48.1875 -13.984375 
Q 42 -20.796875 29.203125 -20.796875 
Q 24.46875 -20.796875 20.265625 -20.09375 
Q 16.0625 -19.390625 12.109375 -17.921875 
L 12.109375 -9.1875 
Q 16.0625 -11.328125 19.921875 -12.34375 
Q 23.78125 -13.375 27.78125 -13.375 
Q 36.625 -13.375 41.015625 -8.765625 
Q 45.40625 -4.15625 45.40625 5.171875 
L 45.40625 9.625 
Q 42.625 4.78125 38.28125 2.390625 
Q 33.9375 0 27.875 0 
Q 17.828125 0 11.671875 7.65625 
Q 5.515625 15.328125 5.515625 27.984375 
Q 5.515625 40.671875 11.671875 48.328125 
Q 17.828125 56 27.875 56 
Q 33.9375 56 38.28125 53.609375 
Q 42.625 51.21875 45.40625 46.390625 
L 45.40625 54.6875 
L 54.390625 54.6875 
z
" id="DejaVuSans-103"/>
       <path d="M 46 62.703125 
L 46 35.5 
L 73.1875 35.5 
L 73.1875 27.203125 
L 46 27.203125 
L 46 0 
L 37.796875 0 
L 37.796875 27.203125 
L 10.59375 27.203125 
L 10.59375 35.5 
L 37.796875 35.5 
L 37.796875 62.703125 
z
" id="DejaVuSans-43"/>
       <path d="M 48.09375 32.234375 
Q 48.25 33.015625 48.3125 33.84375 
Q 48.390625 34.671875 48.390625 35.5 
Q 48.390625 41.453125 44.890625 44.921875 
Q 41.40625 48.390625 35.40625 48.390625 
Q 28.71875 48.390625 23.578125 44.15625 
Q 18.453125 39.9375 15.828125 32.171875 
z
M 55.90625 25.203125 
L 14.109375 25.203125 
Q 13.8125 23.34375 13.71875 22.265625 
Q 13.625 21.1875 13.625 20.40625 
Q 13.625 13.625 17.796875 9.90625 
Q 21.96875 6.203125 29.59375 6.203125 
Q 35.453125 6.203125 40.671875 7.515625 
Q 45.90625 8.84375 50.390625 11.375 
L 48.6875 2.484375 
Q 43.84375 0.53125 38.6875 -0.4375 
Q 33.546875 -1.421875 28.21875 -1.421875 
Q 16.84375 -1.421875 10.71875 4.015625 
Q 4.59375 9.46875 4.59375 19.484375 
Q 4.59375 28.03125 7.640625 35.375 
Q 10.6875 42.71875 16.609375 48.484375 
Q 20.40625 52.09375 25.65625 54.046875 
Q 30.90625 56 36.8125 56 
Q 46.09375 56 51.578125 50.4375 
Q 57.078125 44.875 57.078125 35.5 
Q 57.078125 33.25 56.78125 30.6875 
Q 56.5 28.125 55.90625 25.203125 
z
" id="DejaVuSans-Oblique-101"/>
      </defs>
      <use transform="translate(0 0.16875)" xlink:href="#DejaVuSans-8722"/>
      <use transform="translate(83.789062 0.16875)" xlink:href="#DejaVuSans-108"/>
      <use transform="translate(111.572266 0.16875)" xlink:href="#DejaVuSans-111"/>
      <use transform="translate(172.753906 0.16875)" xlink:href="#DejaVuSans-103"/>
      <use transform="translate(336.230469 43.965625)scale(0.7)" xlink:href="#DejaVuSans-49"/>
      <use transform="translate(236.230469 -40.878125)scale(0.7)" xlink:href="#DejaVuSans-49"/>
      <use transform="translate(294.404297 -40.878125)scale(0.7)" xlink:href="#DejaVuSans-43"/>
      <use transform="translate(366.694336 -40.878125)scale(0.7)" xlink:href="#DejaVuSans-Oblique-101"/>
      <use transform="translate(413.015669 -14.08125)scale(0.49)" xlink:href="#DejaVuSans-8722"/>
      <use transform="translate(454.07231 -14.08125)scale(0.49)" xlink:href="#DejaVuSans-Oblique-122"/>
      <path d="M 236.230469 18.965625 
L 236.230469 25.215625 
L 481.706587 25.215625 
L 481.706587 18.965625 
L 236.230469 18.965625 
z
"/>
     </g>
    </g>
    <g id="line2d_19">
     <path d="M 244.7 66.458438 
L 264.7 66.458438 
" style="fill:none;stroke:#0000ff;stroke-linecap:square;stroke-width:0.5;"/>
    </g>
    <g id="line2d_20"/>
    <g id="text_17">
     <!-- $cost_1(z)$ -->
     <g transform="translate(272.7 69.958438)scale(0.1 -0.1)">
      <defs>
       <path d="M 53.609375 52.59375 
L 51.8125 43.703125 
Q 48.578125 46.046875 44.9375 47.21875 
Q 41.3125 48.390625 37.40625 48.390625 
Q 33.109375 48.390625 29.21875 46.875 
Q 25.34375 45.359375 22.703125 42.578125 
Q 18.5 38.328125 16.203125 32.609375 
Q 13.921875 26.90625 13.921875 20.796875 
Q 13.921875 13.421875 17.609375 9.8125 
Q 21.296875 6.203125 28.8125 6.203125 
Q 32.515625 6.203125 36.6875 7.328125 
Q 40.875 8.453125 45.40625 10.6875 
L 43.703125 1.8125 
Q 39.796875 0.203125 35.671875 -0.609375 
Q 31.546875 -1.421875 27.203125 -1.421875 
Q 16.3125 -1.421875 10.453125 4.015625 
Q 4.59375 9.46875 4.59375 19.578125 
Q 4.59375 28.078125 7.640625 35.234375 
Q 10.6875 42.390625 16.703125 48.09375 
Q 20.796875 52 26.3125 54 
Q 31.84375 56 38.375 56 
Q 42.1875 56 45.9375 55.140625 
Q 49.703125 54.296875 53.609375 52.59375 
z
" id="DejaVuSans-Oblique-99"/>
       <path d="M 25.390625 -1.421875 
Q 15.765625 -1.421875 10.171875 4.515625 
Q 4.59375 10.453125 4.59375 20.703125 
Q 4.59375 26.65625 6.515625 32.828125 
Q 8.453125 39.015625 11.53125 43.21875 
Q 16.359375 49.75 22.3125 52.875 
Q 28.265625 56 35.796875 56 
Q 45.125 56 50.859375 50.1875 
Q 56.59375 44.390625 56.59375 35.015625 
Q 56.59375 28.515625 54.6875 22.0625 
Q 52.78125 15.625 49.703125 11.375 
Q 44.921875 4.828125 38.96875 1.703125 
Q 33.015625 -1.421875 25.390625 -1.421875 
z
M 13.921875 21 
Q 13.921875 13.578125 17.015625 9.890625 
Q 20.125 6.203125 26.421875 6.203125 
Q 35.453125 6.203125 41.375 14.078125 
Q 47.3125 21.96875 47.3125 34.078125 
Q 47.3125 41.15625 44.140625 44.765625 
Q 40.96875 48.390625 34.8125 48.390625 
Q 29.734375 48.390625 25.78125 46.015625 
Q 21.828125 43.65625 18.703125 38.8125 
Q 16.40625 35.203125 15.15625 30.5625 
Q 13.921875 25.921875 13.921875 21 
z
" id="DejaVuSans-Oblique-111"/>
       <path d="M 50 53.078125 
L 48.296875 44.578125 
Q 44.734375 46.53125 40.765625 47.5 
Q 36.8125 48.484375 32.625 48.484375 
Q 25.53125 48.484375 21.453125 46.0625 
Q 17.390625 43.65625 17.390625 39.5 
Q 17.390625 34.671875 26.859375 32.078125 
Q 27.59375 31.890625 27.9375 31.78125 
L 30.8125 30.90625 
Q 39.796875 28.421875 42.796875 25.6875 
Q 45.796875 22.953125 45.796875 18.21875 
Q 45.796875 9.515625 38.890625 4.046875 
Q 31.984375 -1.421875 20.796875 -1.421875 
Q 16.453125 -1.421875 11.671875 -0.578125 
Q 6.890625 0.25 1.125 2 
L 2.875 11.28125 
Q 7.8125 8.734375 12.59375 7.421875 
Q 17.390625 6.109375 21.78125 6.109375 
Q 28.375 6.109375 32.5 8.9375 
Q 36.625 11.765625 36.625 16.109375 
Q 36.625 20.796875 25.78125 23.6875 
L 24.859375 23.921875 
L 21.78125 24.703125 
Q 14.9375 26.515625 11.765625 29.46875 
Q 8.59375 32.421875 8.59375 37.015625 
Q 8.59375 45.75 15.15625 50.875 
Q 21.734375 56 33.015625 56 
Q 37.453125 56 41.671875 55.265625 
Q 45.90625 54.546875 50 53.078125 
z
" id="DejaVuSans-Oblique-115"/>
       <path d="M 42.28125 54.6875 
L 40.921875 47.703125 
L 23 47.703125 
L 17.1875 18.015625 
Q 16.890625 16.359375 16.75 15.234375 
Q 16.609375 14.109375 16.609375 13.484375 
Q 16.609375 10.359375 18.484375 8.9375 
Q 20.359375 7.515625 24.515625 7.515625 
L 33.59375 7.515625 
L 32.078125 0 
L 23.484375 0 
Q 15.484375 0 11.546875 3.125 
Q 7.625 6.25 7.625 12.59375 
Q 7.625 13.71875 7.765625 15.0625 
Q 7.90625 16.40625 8.203125 18.015625 
L 14.015625 47.703125 
L 6.390625 47.703125 
L 7.8125 54.6875 
L 15.28125 54.6875 
L 18.3125 70.21875 
L 27.296875 70.21875 
L 24.3125 54.6875 
z
" id="DejaVuSans-Oblique-116"/>
       <path d="M 31 75.875 
Q 24.46875 64.65625 21.28125 53.65625 
Q 18.109375 42.671875 18.109375 31.390625 
Q 18.109375 20.125 21.3125 9.0625 
Q 24.515625 -2 31 -13.1875 
L 23.1875 -13.1875 
Q 15.875 -1.703125 12.234375 9.375 
Q 8.59375 20.453125 8.59375 31.390625 
Q 8.59375 42.28125 12.203125 53.3125 
Q 15.828125 64.359375 23.1875 75.875 
z
" id="DejaVuSans-40"/>
       <path d="M 8.015625 75.875 
L 15.828125 75.875 
Q 23.140625 64.359375 26.78125 53.3125 
Q 30.421875 42.28125 30.421875 31.390625 
Q 30.421875 20.453125 26.78125 9.375 
Q 23.140625 -1.703125 15.828125 -13.1875 
L 8.015625 -13.1875 
Q 14.5 -2 17.703125 9.0625 
Q 20.90625 20.125 20.90625 31.390625 
Q 20.90625 42.671875 17.703125 53.65625 
Q 14.5 64.65625 8.015625 75.875 
z
" id="DejaVuSans-41"/>
      </defs>
      <use transform="translate(0 0.125)" xlink:href="#DejaVuSans-Oblique-99"/>
      <use transform="translate(54.980469 0.125)" xlink:href="#DejaVuSans-Oblique-111"/>
      <use transform="translate(116.162109 0.125)" xlink:href="#DejaVuSans-Oblique-115"/>
      <use transform="translate(168.261719 0.125)" xlink:href="#DejaVuSans-Oblique-116"/>
      <use transform="translate(207.470703 -16.28125)scale(0.7)" xlink:href="#DejaVuSans-49"/>
      <use transform="translate(254.741211 0.125)" xlink:href="#DejaVuSans-40"/>
      <use transform="translate(293.754883 0.125)" xlink:href="#DejaVuSans-Oblique-122"/>
      <use transform="translate(346.245117 0.125)" xlink:href="#DejaVuSans-41"/>
     </g>
    </g>
   </g>
  </g>
  <g id="axes_2">
   <g id="patch_8">
    <path d="M 554.4 256.32 
L 777.6 256.32 
L 777.6 34.56 
L 554.4 34.56 
z
" style="fill:#ffffff;"/>
   </g>
   <g id="matplotlib.axis_3">
    <g id="xtick_8">
     <g id="line2d_21">
      <g>
       <use style="stroke:#000000;stroke-width:0.8;" x="564.545455" xlink:href="#m92c16ee5c3" y="256.32"/>
      </g>
     </g>
     <g id="text_18">
      <!-- −3 -->
      <g transform="translate(557.174361 270.918437)scale(0.1 -0.1)">
       <use xlink:href="#DejaVuSans-8722"/>
       <use x="83.789062" xlink:href="#DejaVuSans-51"/>
      </g>
     </g>
    </g>
    <g id="xtick_9">
     <g id="line2d_22">
      <g>
       <use style="stroke:#000000;stroke-width:0.8;" x="598.363636" xlink:href="#m92c16ee5c3" y="256.32"/>
      </g>
     </g>
     <g id="text_19">
      <!-- −2 -->
      <g transform="translate(590.992543 270.918437)scale(0.1 -0.1)">
       <use xlink:href="#DejaVuSans-8722"/>
       <use x="83.789062" xlink:href="#DejaVuSans-50"/>
      </g>
     </g>
    </g>
    <g id="xtick_10">
     <g id="line2d_23">
      <g>
       <use style="stroke:#000000;stroke-width:0.8;" x="632.181818" xlink:href="#m92c16ee5c3" y="256.32"/>
      </g>
     </g>
     <g id="text_20">
      <!-- −1 -->
      <g transform="translate(624.810724 270.918437)scale(0.1 -0.1)">
       <use xlink:href="#DejaVuSans-8722"/>
       <use x="83.789062" xlink:href="#DejaVuSans-49"/>
      </g>
     </g>
    </g>
    <g id="xtick_11">
     <g id="line2d_24">
      <g>
       <use style="stroke:#000000;stroke-width:0.8;" x="666" xlink:href="#m92c16ee5c3" y="256.32"/>
      </g>
     </g>
     <g id="text_21">
      <!-- 0 -->
      <g transform="translate(662.81875 270.918437)scale(0.1 -0.1)">
       <use xlink:href="#DejaVuSans-48"/>
      </g>
     </g>
    </g>
    <g id="xtick_12">
     <g id="line2d_25">
      <g>
       <use style="stroke:#000000;stroke-width:0.8;" x="699.818182" xlink:href="#m92c16ee5c3" y="256.32"/>
      </g>
     </g>
     <g id="text_22">
      <!-- 1 -->
      <g transform="translate(696.636932 270.918437)scale(0.1 -0.1)">
       <use xlink:href="#DejaVuSans-49"/>
      </g>
     </g>
    </g>
    <g id="xtick_13">
     <g id="line2d_26">
      <g>
       <use style="stroke:#000000;stroke-width:0.8;" x="733.636364" xlink:href="#m92c16ee5c3" y="256.32"/>
      </g>
     </g>
     <g id="text_23">
      <!-- 2 -->
      <g transform="translate(730.455114 270.918437)scale(0.1 -0.1)">
       <use xlink:href="#DejaVuSans-50"/>
      </g>
     </g>
    </g>
    <g id="xtick_14">
     <g id="line2d_27">
      <g>
       <use style="stroke:#000000;stroke-width:0.8;" x="767.454545" xlink:href="#m92c16ee5c3" y="256.32"/>
      </g>
     </g>
     <g id="text_24">
      <!-- 3 -->
      <g transform="translate(764.273295 270.918437)scale(0.1 -0.1)">
       <use xlink:href="#DejaVuSans-51"/>
      </g>
     </g>
    </g>
    <g id="text_25">
     <!-- $z$ -->
     <g transform="translate(662.82 286.11625)scale(0.12 -0.12)">
      <use transform="translate(0 0.3125)" xlink:href="#DejaVuSans-Oblique-122"/>
     </g>
    </g>
   </g>
   <g id="matplotlib.axis_4">
    <g id="ytick_8">
     <g id="line2d_28">
      <g>
       <use style="stroke:#000000;stroke-width:0.8;" x="554.4" xlink:href="#m89b826cec7" y="246.24"/>
      </g>
     </g>
     <g id="text_26">
      <!-- 0.0 -->
      <g transform="translate(531.496875 250.039219)scale(0.1 -0.1)">
       <use xlink:href="#DejaVuSans-48"/>
       <use x="63.623047" xlink:href="#DejaVuSans-46"/>
       <use x="95.410156" xlink:href="#DejaVuSans-48"/>
      </g>
     </g>
    </g>
    <g id="ytick_9">
     <g id="line2d_29">
      <g>
       <use style="stroke:#000000;stroke-width:0.8;" x="554.4" xlink:href="#m89b826cec7" y="213.175505"/>
      </g>
     </g>
     <g id="text_27">
      <!-- 0.5 -->
      <g transform="translate(531.496875 216.974724)scale(0.1 -0.1)">
       <use xlink:href="#DejaVuSans-48"/>
       <use x="63.623047" xlink:href="#DejaVuSans-46"/>
       <use x="95.410156" xlink:href="#DejaVuSans-53"/>
      </g>
     </g>
    </g>
    <g id="ytick_10">
     <g id="line2d_30">
      <g>
       <use style="stroke:#000000;stroke-width:0.8;" x="554.4" xlink:href="#m89b826cec7" y="180.111011"/>
      </g>
     </g>
     <g id="text_28">
      <!-- 1.0 -->
      <g transform="translate(531.496875 183.91023)scale(0.1 -0.1)">
       <use xlink:href="#DejaVuSans-49"/>
       <use x="63.623047" xlink:href="#DejaVuSans-46"/>
       <use x="95.410156" xlink:href="#DejaVuSans-48"/>
      </g>
     </g>
    </g>
    <g id="ytick_11">
     <g id="line2d_31">
      <g>
       <use style="stroke:#000000;stroke-width:0.8;" x="554.4" xlink:href="#m89b826cec7" y="147.046516"/>
      </g>
     </g>
     <g id="text_29">
      <!-- 1.5 -->
      <g transform="translate(531.496875 150.845735)scale(0.1 -0.1)">
       <use xlink:href="#DejaVuSans-49"/>
       <use x="63.623047" xlink:href="#DejaVuSans-46"/>
       <use x="95.410156" xlink:href="#DejaVuSans-53"/>
      </g>
     </g>
    </g>
    <g id="ytick_12">
     <g id="line2d_32">
      <g>
       <use style="stroke:#000000;stroke-width:0.8;" x="554.4" xlink:href="#m89b826cec7" y="113.982022"/>
      </g>
     </g>
     <g id="text_30">
      <!-- 2.0 -->
      <g transform="translate(531.496875 117.78124)scale(0.1 -0.1)">
       <use xlink:href="#DejaVuSans-50"/>
       <use x="63.623047" xlink:href="#DejaVuSans-46"/>
       <use x="95.410156" xlink:href="#DejaVuSans-48"/>
      </g>
     </g>
    </g>
    <g id="ytick_13">
     <g id="line2d_33">
      <g>
       <use style="stroke:#000000;stroke-width:0.8;" x="554.4" xlink:href="#m89b826cec7" y="80.917527"/>
      </g>
     </g>
     <g id="text_31">
      <!-- 2.5 -->
      <g transform="translate(531.496875 84.716746)scale(0.1 -0.1)">
       <use xlink:href="#DejaVuSans-50"/>
       <use x="63.623047" xlink:href="#DejaVuSans-46"/>
       <use x="95.410156" xlink:href="#DejaVuSans-53"/>
      </g>
     </g>
    </g>
    <g id="ytick_14">
     <g id="line2d_34">
      <g>
       <use style="stroke:#000000;stroke-width:0.8;" x="554.4" xlink:href="#m89b826cec7" y="47.853032"/>
      </g>
     </g>
     <g id="text_32">
      <!-- 3.0 -->
      <g transform="translate(531.496875 51.652251)scale(0.1 -0.1)">
       <use xlink:href="#DejaVuSans-51"/>
       <use x="63.623047" xlink:href="#DejaVuSans-46"/>
       <use x="95.410156" xlink:href="#DejaVuSans-48"/>
      </g>
     </g>
    </g>
   </g>
   <g id="line2d_35">
    <path clip-path="url(#p5895736b6e)" d="M 564.545455 243.026968 
L 566.595041 242.831305 
L 568.644628 242.62405 
L 570.694215 242.404555 
L 572.743802 242.172141 
L 574.793388 241.926098 
L 576.842975 241.665681 
L 578.892562 241.390112 
L 580.942149 241.098578 
L 582.991736 240.790231 
L 585.041322 240.464186 
L 587.090909 240.119522 
L 589.140496 239.755281 
L 591.190083 239.370468 
L 593.239669 238.96405 
L 595.289256 238.534958 
L 597.338843 238.082087 
L 599.38843 237.604295 
L 601.438017 237.100404 
L 603.487603 236.569203 
L 605.53719 236.00945 
L 607.586777 235.419868 
L 609.636364 234.799157 
L 611.68595 234.145984 
L 613.735537 233.458999 
L 615.785124 232.736826 
L 617.834711 231.978075 
L 619.884298 231.181344 
L 621.933884 230.34522 
L 623.983471 229.468288 
L 626.033058 228.549133 
L 628.082645 227.586347 
L 630.132231 226.578535 
L 632.181818 225.524321 
L 634.231405 224.422353 
L 636.280992 223.271311 
L 638.330579 222.069913 
L 640.380165 220.816922 
L 642.429752 219.511155 
L 644.479339 218.151484 
L 646.528926 216.73685 
L 648.578512 215.266265 
L 650.628099 213.73882 
L 652.677686 212.153689 
L 654.727273 210.510138 
L 656.77686 208.807527 
L 658.826446 207.045316 
L 660.876033 205.223067 
L 662.92562 203.340449 
L 664.975207 201.397242 
L 667.024793 199.393333 
L 669.07438 197.328723 
L 671.123967 195.203523 
L 673.173554 193.017955 
L 675.22314 190.772349 
L 677.272727 188.467142 
L 679.322314 186.102875 
L 681.371901 183.680188 
L 683.421488 181.199816 
L 685.471074 178.662584 
L 687.520661 176.0694 
L 689.570248 173.421253 
L 691.619835 170.719203 
L 693.669421 167.964376 
L 695.719008 165.157957 
L 697.768595 162.301182 
L 699.818182 159.395332 
L 701.867769 156.441729 
L 703.917355 153.441723 
L 705.966942 150.396691 
L 708.016529 147.308029 
L 710.066116 144.177143 
L 712.115702 141.00545 
L 714.165289 137.794363 
L 716.214876 134.545296 
L 718.264463 131.259652 
L 720.31405 127.93882 
L 722.363636 124.584175 
L 724.413223 121.197069 
L 726.46281 117.778833 
L 728.512397 114.330769 
L 730.561983 110.854152 
L 732.61157 107.350225 
L 734.661157 103.8202 
L 736.710744 100.265254 
L 738.760331 96.686528 
L 740.809917 93.085128 
L 742.859504 89.462124 
L 744.909091 85.818547 
L 746.958678 82.155394 
L 749.008264 78.473621 
L 751.057851 74.774151 
L 753.107438 71.057867 
L 755.157025 67.325618 
L 757.206612 63.578218 
L 759.256198 59.816444 
L 761.305785 56.04104 
L 763.355372 52.252717 
L 765.404959 48.452155 
L 767.454545 44.64 
" style="fill:none;stroke:#ff0000;stroke-linecap:square;stroke-width:0.5;"/>
   </g>
   <g id="line2d_36">
    <path clip-path="url(#p5895736b6e)" d="M 564.545455 246.24 
L 566.595041 246.24 
L 568.644628 246.24 
L 570.694215 246.24 
L 572.743802 246.24 
L 574.793388 246.24 
L 576.842975 246.24 
L 578.892562 246.24 
L 580.942149 246.24 
L 582.991736 246.24 
L 585.041322 246.24 
L 587.090909 246.24 
L 589.140496 246.24 
L 591.190083 246.24 
L 593.239669 246.24 
L 595.289256 246.24 
L 597.338843 246.24 
L 599.38843 246.24 
L 601.438017 246.24 
L 603.487603 246.24 
L 605.53719 246.24 
L 607.586777 246.24 
L 609.636364 246.24 
L 611.68595 246.24 
L 613.735537 246.24 
L 615.785124 246.24 
L 617.834711 246.24 
L 619.884298 246.24 
L 621.933884 246.24 
L 623.983471 246.24 
L 626.033058 246.24 
L 628.082645 246.24 
L 630.132231 246.24 
L 632.181818 246.24 
L 634.231405 243.835309 
L 636.280992 241.430619 
L 638.330579 239.025928 
L 640.380165 236.621238 
L 642.429752 234.216547 
L 644.479339 231.811857 
L 646.528926 229.407166 
L 648.578512 227.002476 
L 650.628099 224.597785 
L 652.677686 222.193095 
L 654.727273 219.788404 
L 656.77686 217.383714 
L 658.826446 214.979023 
L 660.876033 212.574333 
L 662.92562 210.169642 
L 664.975207 207.764952 
L 667.024793 205.360261 
L 669.07438 202.955571 
L 671.123967 200.55088 
L 673.173554 198.14619 
L 675.22314 195.741499 
L 677.272727 193.336809 
L 679.322314 190.932118 
L 681.371901 188.527428 
L 683.421488 186.122737 
L 685.471074 183.718047 
L 687.520661 181.313356 
L 689.570248 178.908666 
L 691.619835 176.503975 
L 693.669421 174.099285 
L 695.719008 171.694594 
L 697.768595 169.289903 
L 699.818182 166.885213 
L 701.867769 164.480522 
L 703.917355 162.075832 
L 705.966942 159.671141 
L 708.016529 157.266451 
L 710.066116 154.86176 
L 712.115702 152.45707 
L 714.165289 150.052379 
L 716.214876 147.647689 
L 718.264463 145.242998 
L 720.31405 142.838308 
L 722.363636 140.433617 
L 724.413223 138.028927 
L 726.46281 135.624236 
L 728.512397 133.219546 
L 730.561983 130.814855 
L 732.61157 128.410165 
L 734.661157 126.005474 
L 736.710744 123.600784 
L 738.760331 121.196093 
L 740.809917 118.791403 
L 742.859504 116.386712 
L 744.909091 113.982022 
L 746.958678 111.577331 
L 749.008264 109.172641 
L 751.057851 106.76795 
L 753.107438 104.36326 
L 755.157025 101.958569 
L 757.206612 99.553879 
L 759.256198 97.149188 
L 761.305785 94.744498 
L 763.355372 92.339807 
L 765.404959 89.935116 
L 767.454545 87.530426 
" style="fill:none;stroke:#0000ff;stroke-linecap:square;stroke-width:0.5;"/>
   </g>
   <g id="patch_9">
    <path d="M 554.4 256.32 
L 554.4 34.56 
" style="fill:none;stroke:#000000;stroke-linecap:square;stroke-linejoin:miter;stroke-width:0.8;"/>
   </g>
   <g id="patch_10">
    <path d="M 777.6 256.32 
L 777.6 34.56 
" style="fill:none;stroke:#000000;stroke-linecap:square;stroke-linejoin:miter;stroke-width:0.8;"/>
   </g>
   <g id="patch_11">
    <path d="M 554.4 256.32 
L 777.6 256.32 
" style="fill:none;stroke:#000000;stroke-linecap:square;stroke-linejoin:miter;stroke-width:0.8;"/>
   </g>
   <g id="patch_12">
    <path d="M 554.4 34.56 
L 777.6 34.56 
" style="fill:none;stroke:#000000;stroke-linecap:square;stroke-linejoin:miter;stroke-width:0.8;"/>
   </g>
   <g id="legend_2">
    <g id="patch_13">
     <path d="M 561.4 76.038125 
L 670.4 76.038125 
Q 672.4 76.038125 672.4 74.038125 
L 672.4 41.56 
Q 672.4 39.56 670.4 39.56 
L 561.4 39.56 
Q 559.4 39.56 559.4 41.56 
L 559.4 74.038125 
Q 559.4 76.038125 561.4 76.038125 
z
" style="fill:#ffffff;opacity:0.8;stroke:#cccccc;stroke-linejoin:miter;"/>
    </g>
    <g id="line2d_37">
     <path d="M 563.4 49.56 
L 583.4 49.56 
" style="fill:none;stroke:#ff0000;stroke-linecap:square;stroke-width:0.5;"/>
    </g>
    <g id="line2d_38"/>
    <g id="text_33">
     <!-- $-\log\left(1-\frac{1}{1+e^{-z}}\right)$ -->
     <g transform="translate(591.4 53.06)scale(0.1 -0.1)">
      <defs>
       <path d="M 50.296875 -24.296875 
L 50.296875 -27.90625 
Q 33.5 -12.09375 23.703125 11.40625 
Q 13.90625 34.90625 13.90625 64.296875 
Q 13.90625 93.796875 23.953125 118.640625 
Q 34 143.5 50.296875 156.59375 
L 50.296875 153.296875 
Q 38.90625 141.59375 31.15625 118.84375 
Q 23.40625 96.09375 23.40625 64.296875 
Q 23.40625 8.796875 50.296875 -24.296875 
z
" id="STIXSizeTwoSym-Regular-40"/>
       <path d="M 11.40625 153 
L 11.40625 156.59375 
Q 28.203125 140.796875 38 117.296875 
Q 47.796875 93.796875 47.796875 64.296875 
Q 47.796875 34.90625 37.75 10.046875 
Q 27.703125 -14.796875 11.40625 -27.90625 
L 11.40625 -24.59375 
Q 22.796875 -12.90625 30.546875 9.890625 
Q 38.296875 32.703125 38.296875 64.296875 
Q 38.296875 119.90625 11.40625 153 
z
" id="STIXSizeTwoSym-Regular-41"/>
      </defs>
      <use transform="translate(0 0.16875)" xlink:href="#DejaVuSans-8722"/>
      <use transform="translate(83.789062 0.16875)" xlink:href="#DejaVuSans-108"/>
      <use transform="translate(111.572266 0.16875)" xlink:href="#DejaVuSans-111"/>
      <use transform="translate(172.753906 0.16875)" xlink:href="#DejaVuSans-103"/>
      <use transform="translate(236.230469 -21.232813)scale(0.741861)" xlink:href="#STIXSizeTwoSym-Regular-40"/>
      <use transform="translate(279.890076 0.16875)" xlink:href="#DejaVuSans-49"/>
      <use transform="translate(362.995544 0.16875)" xlink:href="#DejaVuSans-8722"/>
      <use transform="translate(566.267029 43.965625)scale(0.7)" xlink:href="#DejaVuSans-49"/>
      <use transform="translate(466.267029 -40.878125)scale(0.7)" xlink:href="#DejaVuSans-49"/>
      <use transform="translate(524.440857 -40.878125)scale(0.7)" xlink:href="#DejaVuSans-43"/>
      <use transform="translate(596.730896 -40.878125)scale(0.7)" xlink:href="#DejaVuSans-Oblique-101"/>
      <use transform="translate(643.052229 -14.08125)scale(0.49)" xlink:href="#DejaVuSans-8722"/>
      <use transform="translate(684.10887 -14.08125)scale(0.49)" xlink:href="#DejaVuSans-Oblique-122"/>
      <use transform="translate(724.243147 -21.232813)scale(0.741861)" xlink:href="#STIXSizeTwoSym-Regular-41"/>
      <path d="M 466.267029 18.965625 
L 466.267029 25.215625 
L 711.743147 25.215625 
L 711.743147 18.965625 
L 466.267029 18.965625 
z
"/>
     </g>
    </g>
    <g id="line2d_39">
     <path d="M 563.4 66.458438 
L 583.4 66.458438 
" style="fill:none;stroke:#0000ff;stroke-linecap:square;stroke-width:0.5;"/>
    </g>
    <g id="line2d_40"/>
    <g id="text_34">
     <!-- $cost_0(z)$ -->
     <g transform="translate(591.4 69.958438)scale(0.1 -0.1)">
      <use transform="translate(0 0.125)" xlink:href="#DejaVuSans-Oblique-99"/>
      <use transform="translate(54.980469 0.125)" xlink:href="#DejaVuSans-Oblique-111"/>
      <use transform="translate(116.162109 0.125)" xlink:href="#DejaVuSans-Oblique-115"/>
      <use transform="translate(168.261719 0.125)" xlink:href="#DejaVuSans-Oblique-116"/>
      <use transform="translate(207.470703 -16.28125)scale(0.7)" xlink:href="#DejaVuSans-48"/>
      <use transform="translate(254.741211 0.125)" xlink:href="#DejaVuSans-40"/>
      <use transform="translate(293.754883 0.125)" xlink:href="#DejaVuSans-Oblique-122"/>
      <use transform="translate(346.245117 0.125)" xlink:href="#DejaVuSans-41"/>
     </g>
    </g>
   </g>
  </g>
 </g>
 <defs>
  <clipPath id="p563f3caf9c">
   <rect height="221.76" width="223.2" x="108" y="34.56"/>
  </clipPath>
  <clipPath id="p5895736b6e">
   <rect height="221.76" width="223.2" x="554.4" y="34.56"/>
  </clipPath>
 </defs>
</svg>
